<svg width="141" height="138" viewBox="0 0 141 138" fill="none" xmlns="http://www.w3.org/2000/svg">
<path d="M52.3132 46.9279L47.9101 51.5562L39.5032 43.4259C37.5599 44.6401 35.2645 45.3441 32.8105 45.3441C25.8302 45.3441 20.1766 39.6892 20.1766 32.7204C20.1766 25.7516 25.836 20.0967 32.8105 20.0967C39.785 20.0967 45.4444 25.7457 45.4444 32.7204C45.4444 34.9495 44.8632 37.0495 43.8475 38.868L52.3132 46.9279Z" fill="#1B989B"/>
<path d="M99.5728 75.1435L100.336 68.9255L116.017 70.4858C116.751 68.3154 118.078 66.321 119.98 64.7665C125.381 60.3494 133.341 61.1413 137.762 66.538C142.183 71.9348 141.39 79.8891 135.989 84.3062C130.588 88.7233 122.627 87.9314 118.207 82.5346C116.792 80.81 115.911 78.8214 115.541 76.7683L99.5728 75.1435Z" fill="#1B989B"/>
<path d="M74.6808 97.663L80.8451 96.5192L84.0799 111.929C86.3695 111.976 88.6767 112.639 90.7315 113.982C96.5729 117.795 98.2167 125.62 94.4007 131.457C90.5847 137.294 82.7531 138.936 76.9117 135.123C71.0703 131.31 69.4265 123.485 73.2425 117.649C74.4636 115.777 76.0957 114.34 77.9449 113.372L74.6808 97.663Z" fill="#1B989B"/>
<path d="M30.3565 99.2234C30.3565 99.241 30.3565 99.2644 30.3565 99.282C30.3272 100.795 29.0884 102.01 27.5679 102.01C27.245 102.01 26.9339 101.957 26.6462 101.851C26.3174 101.734 26.018 101.564 25.7597 101.341L25.4368 101.018L10.1611 85.7022L14.0358 81.8306L29.1354 96.918L29.8751 97.6571C30.1804 98.103 30.3565 98.6426 30.3565 99.2234Z" fill="#1B989B"/>
<path d="M25.7597 101.347C25.6423 101.247 25.5366 101.142 25.4368 101.024L25.7597 101.347Z" fill="#1B989B"/>
<path d="M29.8751 97.6572L29.1354 96.9181C29.4289 97.1175 29.6755 97.3639 29.8751 97.6572Z" fill="#1B989B"/>
<path d="M73.4949 67.7523H65.0527V59.9505H73.4949C75.7551 59.9505 77.5868 61.6985 77.5868 63.8514C77.5868 66.0042 75.7551 67.7523 73.4949 67.7523Z" fill="#1B989B"/>
<path d="M79.1719 74.9381C79.1719 77.0909 77.3402 78.839 75.08 78.839H65.0527V71.0372H75.08C77.3402 71.0372 79.1719 72.7852 79.1719 74.9381Z" fill="#1B989B"/>
<path d="M71.1584 43.9362C56.9922 43.9362 45.5031 55.4102 45.5031 69.5707C45.5031 83.7313 56.9922 95.2052 71.1584 95.2052C85.3245 95.2052 96.8136 83.7254 96.8136 69.5707C96.8136 55.416 85.3245 43.9362 71.1584 43.9362ZM76.0898 82.1181C75.9841 82.124 75.8726 82.124 75.7669 82.124C75.3736 82.124 74.992 82.0888 74.6221 82.0243V83.7958C74.6221 84.6874 73.9 85.409 73.0076 85.409C72.1153 85.409 71.3932 84.6874 71.3932 83.7958V82.124H68.223V83.7958C68.223 84.6874 67.5009 85.409 66.6085 85.409C65.7162 85.409 64.9941 84.6874 64.9941 83.7958V82.124H63.3502C63.2915 82.124 63.2328 82.1181 63.1741 82.1123C62.317 82.0243 61.6477 81.3028 61.6477 80.4229V58.3666C61.6477 57.4281 62.4109 56.6655 63.3502 56.6655H64.9353V54.9937C64.9353 54.102 65.6574 53.3805 66.5498 53.3805C66.996 53.3805 67.4011 53.5624 67.6887 53.8557C67.9823 54.149 68.1643 54.5479 68.1643 54.9937V56.6655H71.3345V54.9937C71.3345 54.102 72.0566 53.3805 72.9489 53.3805C73.3951 53.3805 73.8002 53.5624 74.0879 53.8557C74.3814 54.149 74.5634 54.5479 74.5634 54.9937V56.6772C75.1563 56.7124 75.7258 56.8239 76.2659 57.0057C78.99 57.9208 80.9625 60.5899 80.9625 63.734C80.9625 65.7168 80.1817 67.5118 78.9136 68.7964C81.0741 69.9755 82.5476 72.3395 82.5476 75.0554C82.5476 78.8449 79.6827 81.9421 76.0898 82.1181Z" fill="#1B989B"/>
<path d="M24.8967 73.4423C24.838 74.0289 23.0768 74.1462 23.0768 74.1462C16.0319 75.4367 9.4566 83.4145 6.22768 87.3447C3.40971 90.7705 2.2473 95.0468 1.99486 96.0851C1.93028 96.3491 1.63674 96.484 1.39604 96.3608C0.996829 96.1555 0.456719 95.3577 0.0633778 92.8001C-0.641114 88.2246 4.75999 80.7161 4.75999 80.7161L3.7737 79.5371C3.08682 79.0091 2.64651 78.1879 2.64651 77.2552C2.64651 75.6655 3.93221 74.3808 5.52319 74.3808C6.33922 74.3808 7.07894 74.7211 7.60731 75.2725L8.92823 76.4926C8.92823 76.4926 11.5701 74.0289 16.5602 72.3864C21.5504 70.7439 24.9554 72.8557 24.8967 73.4423Z" fill="#1B989B"/>
<path d="M23.3703 81.8307L25.4368 87.6322L44.7986 81.1855L42.6264 75.2021L23.3703 81.8307Z" fill="#1B989B"/>
<path d="M91.6473 28.1567L83.1934 42.5284L88.5358 45.7547L97.1071 31.5003L91.6473 28.1567Z" fill="#1B989B"/>
<path d="M108.86 11.4383V11.4324C108.86 10.4293 108.044 9.61397 107.04 9.61397H104.792C103.735 8.44077 102.203 7.70751 100.5 7.70751C98.7979 7.70751 97.2656 8.44077 96.2089 9.61397H93.9545C92.9976 9.61397 92.2109 10.3531 92.1405 11.2916L92.1346 11.2858H87.1855C87.1855 11.2858 88.7002 4.36975 95.2989 2.21106V5.103C95.2989 5.52536 95.6394 5.86559 96.0621 5.86559C96.4848 5.86559 96.8253 5.52536 96.8253 5.103V0.163821L96.9428 -0.000427246H104.234L104.281 0.0699647V5.103C104.281 5.52536 104.622 5.86559 105.044 5.86559C105.467 5.86559 105.808 5.52536 105.808 5.103V2.14067C106.635 2.36944 111.614 4.02952 114.085 11.4383H108.86Z" fill="#1B989B"/>
<path d="M118.418 22.789C118.418 23.493 118.13 24.1323 117.672 24.5958C117.209 25.0592 116.569 25.3407 115.864 25.3407H85.1015C83.6925 25.3407 82.5477 24.1969 82.5477 22.789C82.5477 22.0851 82.8353 21.4457 83.2933 20.9823C83.757 20.5189 84.397 20.2373 85.1015 20.2373H88.0133C88.0133 20.2373 88.4771 20.0027 88.4771 19.5921C88.4771 19.4571 88.4126 19.334 88.3245 19.2401C88.1484 19.0406 87.8842 18.9351 87.6141 18.9351H85.9879V16.4244H92.3577C92.6689 16.9817 93.2618 17.3512 93.9487 17.3512H96.2031C97.2598 18.5244 98.7921 19.2577 100.495 19.2577C102.197 19.2577 103.729 18.5244 104.786 17.3512H107.035C107.704 17.3512 108.291 16.9875 108.608 16.4479H115.166V18.9527H113.534C113.264 18.9527 112.999 19.0582 112.823 19.2577C112.735 19.3574 112.671 19.4747 112.671 19.6097C112.671 19.9381 112.976 20.1552 113.093 20.2256H115.864C117.273 20.2373 118.418 21.3812 118.418 22.789Z" fill="#1B989B"/>
<path d="M104.898 13.4797C104.898 14.5004 104.551 15.4389 103.964 16.1898C103.594 16.6649 103.125 17.0638 102.59 17.3513C101.968 17.6856 101.252 17.8792 100.495 17.8792C99.7373 17.8792 99.0269 17.6856 98.3987 17.3513C97.8645 17.0638 97.3948 16.6649 97.025 16.1898C96.4379 15.4448 96.0915 14.5004 96.0915 13.4797C96.0915 12.547 96.3851 11.6788 96.8782 10.969C97.2715 10.4059 97.794 9.93662 98.3987 9.60813C99.021 9.27376 99.7373 9.08018 100.495 9.08018C101.252 9.08018 101.968 9.27376 102.59 9.60813C103.195 9.93662 103.718 10.4059 104.111 10.969C104.217 11.1157 104.311 11.2741 104.399 11.4383C104.422 11.4853 104.451 11.538 104.475 11.5908C104.745 12.1598 104.898 12.8051 104.898 13.4797Z" fill="#1B989B"/>
<path d="M86.7746 12.6702H92.1287V15.1339H86.2932C86.2932 15.1339 86.4811 13.2568 86.7746 12.6702Z" fill="#1B989B"/>
<path d="M114.896 15.3099H108.86V12.6702H114.25C114.25 12.6702 114.896 14.1953 114.896 15.3099Z" fill="#1B989B"/>
<path d="M95.3811 16.1898H94.2774C93.8606 16.1898 93.5201 15.8496 93.5201 15.4331V11.7258C93.5201 11.3093 93.8606 10.9691 94.2774 10.9691H95.2813C95.2344 11.0629 95.1874 11.1626 95.1463 11.2624C94.8645 11.9428 94.706 12.6937 94.706 13.4797C94.7119 14.4593 94.9526 15.3803 95.3811 16.1898Z" fill="#1B989B"/>
<path d="M107.616 11.7258V15.4331C107.616 15.6091 107.557 15.7674 107.457 15.8906C107.316 16.0725 107.099 16.1839 106.859 16.1839H105.602C106.031 15.3744 106.277 14.4535 106.277 13.4738C106.277 12.9576 106.207 12.4531 106.084 11.978C106.037 11.7903 105.978 11.6084 105.907 11.4325C105.884 11.3738 105.86 11.3151 105.837 11.2565C105.796 11.1568 105.749 11.057 105.702 10.9632H106.859C107.176 10.9632 107.446 11.1568 107.557 11.4325C107.598 11.5263 107.616 11.6202 107.616 11.7258Z" fill="#1B989B"/>
<path d="M63.3502 82.124H63.1741V82.1123C63.2328 82.1182 63.2915 82.124 63.3502 82.124Z" fill="#1B989B"/>
<path d="M75.7669 82.124H74.6221V82.0243C74.992 82.0888 75.3736 82.124 75.7669 82.124Z" fill="#1B989B"/>
<path d="M76.0898 82.1181V82.1239H75.7669C75.8726 82.1239 75.9841 82.1181 76.0898 82.1181Z" fill="#1B989B"/>
</svg>
