<svg width="29" height="29" viewBox="0 0 29 29" fill="none" xmlns="http://www.w3.org/2000/svg">
<path d="M19.5 23.1915C20.3284 23.1915 21 22.5124 21 21.6746C21 20.8368 20.3284 20.1577 19.5 20.1577C18.6716 20.1577 18 20.8368 18 21.6746C18 22.5124 18.6716 23.1915 19.5 23.1915Z" fill="#1E989B"/>
<path d="M13.5 23.1915C14.3284 23.1915 15 22.5124 15 21.6746C15 20.8368 14.3284 20.1577 13.5 20.1577C12.6716 20.1577 12 20.8368 12 21.6746C12 22.5124 12.6716 23.1915 13.5 23.1915Z" fill="#1E989B"/>
<path d="M20.9 18.1345H11.45L9 9.0332H23L20.9 18.1345Z" fill="#1E989B"/>
<path fill-rule="evenodd" clip-rule="evenodd" d="M6 6H7.27704C7.72924 6 8.12772 6.2866 8.25556 6.70473L11.153 16.1849C11.323 16.741 11.8541 17.1238 12.4573 17.1238H19.921C20.5343 17.1238 21.0715 16.7286 21.2334 16.1593L23 9.92606H9.4" fill="#1E989B"/>
<path d="M6 6H7.27704C7.72924 6 8.12772 6.2866 8.25556 6.70473L11.153 16.1849C11.323 16.741 11.8541 17.1238 12.4573 17.1238H19.921C20.5343 17.1238 21.0715 16.7286 21.2334 16.1593L23 9.92606H9.4" stroke="#1E989B" stroke-width="2" stroke-linecap="round" stroke-linejoin="round"/>
</svg>
