<svg width="13" height="13" viewBox="0 0 13 13" fill="none" xmlns="http://www.w3.org/2000/svg">
<path fill-rule="evenodd" clip-rule="evenodd" d="M4.41955 2.16517H8.5809V1.08034H4.41955V2.16517ZM12.4666 2.72552C12.1093 2.35345 11.6789 2.16517 11.1796 2.16517H9.62224V0.811379C9.62224 0.587241 9.54469 0.394483 9.39407 0.237586C9.24345 0.0762069 9.05831 0 8.84314 0H4.16135C3.94617 0 3.76103 0.0762069 3.61041 0.237586C3.45531 0.394483 3.38224 0.587241 3.38224 0.811379V2.16517H1.82045C1.32555 2.16517 0.895207 2.35345 0.537931 2.72552C0.180655 3.09759 0 3.54138 0 4.06138V11.1038C0 11.6238 0.180655 12.0676 0.537931 12.4397C0.895207 12.8117 1.32555 13 1.82045 13H11.1796C11.6789 13 12.1093 12.8117 12.4666 12.4397C12.8234 12.0676 13 11.6238 13 11.1038V4.06138C13 3.54138 12.8234 3.09759 12.4666 2.72552Z" fill="black"/>
</svg>
