<svg width="16" height="16" viewBox="0 0 16 16" fill="none" xmlns="http://www.w3.org/2000/svg">
<path d="M1.39403 3.4178L1.33012 3.16669H1.071H1C0.955797 3.16669 0.913405 3.14913 0.882149 3.11787C0.850893 3.08662 0.833333 3.04422 0.833333 3.00002C0.833333 2.95582 0.850893 2.91343 0.882149 2.88217C0.913405 2.85091 0.955797 2.83335 1 2.83335H1.071H1.33012L1.39403 2.58224C1.48489 2.22525 1.69211 1.90872 1.98294 1.68264C2.27377 1.45656 2.63163 1.33382 3 1.33382C3.36837 1.33382 3.72623 1.45656 4.01706 1.68264C4.30789 1.90872 4.51511 2.22525 4.60597 2.58224L4.66988 2.83335H4.929H15C15.0442 2.83335 15.0866 2.85091 15.1179 2.88217L15.3536 2.64647L15.1179 2.88217C15.1491 2.91342 15.1667 2.95582 15.1667 3.00002C15.1667 3.04423 15.1491 3.08662 15.1179 3.11787L15.3536 3.35357L15.1179 3.11787C15.0866 3.14913 15.0442 3.16669 15 3.16669H4.929H4.66988L4.60597 3.4178C4.51511 3.77479 4.30789 4.09132 4.01706 4.3174C3.72623 4.54348 3.36837 4.66622 3 4.66622C2.63163 4.66622 2.27377 4.54348 1.98294 4.3174C1.69211 4.09132 1.48489 3.77479 1.39403 3.4178ZM14.606 7.58224L14.6699 7.83335H14.929H15C15.0442 7.83335 15.0866 7.85091 15.1179 7.88217C15.1491 7.91343 15.1667 7.95582 15.1667 8.00002C15.1667 8.04423 15.1491 8.08662 15.1179 8.11787L15.3536 8.35357L15.1179 8.11787C15.0866 8.14913 15.0442 8.16669 15 8.16669H14.929H14.6699L14.606 8.4178C14.5151 8.77479 14.3079 9.09133 14.0171 9.31741C13.7262 9.54348 13.3684 9.66622 13 9.66622C12.6316 9.66622 12.2738 9.54348 11.9829 9.31741C11.6921 9.09133 11.4849 8.77479 11.394 8.4178L11.3301 8.16669H11.071H1C0.955797 8.16669 0.913404 8.14913 0.882149 8.11787C0.850893 8.08662 0.833333 8.04422 0.833333 8.00002C0.833333 7.95582 0.850892 7.91343 0.882149 7.88217C0.913405 7.85091 0.955798 7.83335 1 7.83335H11.071H11.3301L11.394 7.58224C11.4849 7.22525 11.6921 6.90872 11.9829 6.68264C12.2738 6.45656 12.6316 6.33382 13 6.33382C13.3684 6.33382 13.7262 6.45656 14.0171 6.68264C14.3079 6.90872 14.5151 7.22525 14.606 7.58224ZM3.74076 1.89139L3.55557 2.16855L3.74076 1.89139C3.52149 1.74489 3.26371 1.66669 3 1.66669C2.64638 1.66669 2.30724 1.80716 2.05719 2.05721C1.80714 2.30726 1.66667 2.6464 1.66667 3.00002C1.66667 3.26373 1.74487 3.52152 1.89137 3.74078C2.03788 3.96005 2.24612 4.13094 2.48976 4.23186C2.73339 4.33278 3.00148 4.35918 3.26012 4.30773C3.51876 4.25629 3.75634 4.1293 3.94281 3.94283C4.12928 3.75636 4.25627 3.51878 4.30771 3.26014C4.35916 3.0015 4.33276 2.73341 4.23184 2.48978C4.13092 2.24614 3.96003 2.0379 3.74076 1.89139ZM9.60597 12.5822L9.66988 12.8334H9.929H15C15.0442 12.8334 15.0866 12.8509 15.1179 12.8822C15.1491 12.9134 15.1667 12.9558 15.1667 13C15.1667 13.0442 15.1491 13.0866 15.1179 13.1179C15.0866 13.1491 15.0442 13.1667 15 13.1667H9.929H9.66988L9.60597 13.4178C9.51511 13.7748 9.30789 14.0913 9.01707 14.3174C8.72623 14.5435 8.36837 14.6662 8 14.6662C7.63163 14.6662 7.27377 14.5435 6.98294 14.3174C6.69211 14.0913 6.48489 13.7748 6.39403 13.4178L6.33012 13.1667H6.071H1C0.955797 13.1667 0.913404 13.1491 0.882149 13.1179C0.850893 13.0866 0.833333 13.0442 0.833333 13C0.833333 12.9558 0.850893 12.9134 0.882149 12.8822C0.913404 12.8509 0.955797 12.8334 1 12.8334H6.071H6.33012L6.39403 12.5822C6.48489 12.2253 6.69211 11.9087 6.98294 11.6826C7.27377 11.4566 7.63163 11.3338 8 11.3338C8.36837 11.3338 8.72623 11.4566 9.01706 11.6826C9.30789 11.9087 9.51511 12.2253 9.60597 12.5822ZM12.2592 9.10865C12.4785 9.25516 12.7363 9.33335 13 9.33335C13.3536 9.33335 13.6928 9.19288 13.9428 8.94283C14.1929 8.69278 14.3333 8.35364 14.3333 8.00002C14.3333 7.73631 14.2551 7.47853 14.1086 7.25926C13.9621 7.04 13.7539 6.8691 13.5102 6.76818C13.2666 6.66726 12.9985 6.64086 12.7399 6.69231C12.4812 6.74375 12.2437 6.87074 12.0572 7.05721C11.8707 7.24368 11.7437 7.48126 11.6923 7.7399C11.6408 7.99854 11.6672 8.26663 11.7682 8.51027C11.8691 8.7539 12.04 8.96214 12.2592 9.10865ZM7.25924 14.1086C7.47851 14.2552 7.73629 14.3334 8 14.3334C8.35362 14.3334 8.69276 14.1929 8.94281 13.9428C9.19286 13.6928 9.33333 13.3536 9.33333 13C9.33333 12.7363 9.25513 12.4785 9.10863 12.2593C8.96212 12.04 8.75388 11.8691 8.51025 11.7682C8.26661 11.6673 7.99852 11.6409 7.73988 11.6923C7.48124 11.7438 7.24366 11.8707 7.05719 12.0572C6.87072 12.2437 6.74373 12.4813 6.69229 12.7399C6.64084 12.9985 6.66724 13.2666 6.76816 13.5103C6.86908 13.7539 7.03997 13.9621 7.25924 14.1086Z" fill="#1E989B" stroke="#1E989B" stroke-width="0.666667"/>
</svg>
